<svg width="256" height="144" viewBox="0 0 256 144" fill="none" xmlns="http://www.w3.org/2000/svg">
<g clip-path="url(#clip0_96_2)">
<path d="M196.763 118.852C195.395 120.997 194.917 124.84 192.481 126.267C191.134 126.638 188.069 128.976 186.689 129.388C184.405 130.07 181.66 131.162 180.058 129.185C177.88 126.497 179.083 121.245 181.376 118.66C183.409 116.369 187.262 114.878 189.952 113.302L193.825 111.032C197.87 108.662 199.923 104.823 202.546 101.167C204.42 98.5558 206.564 96.4802 209.4 94.8185C211.068 93.8415 215.06 90.3986 216.712 92.2303C218.263 93.9497 221.016 95.8207 221.168 98.4029C221.337 101.267 220.169 105.71 217.721 107.874C215.47 109.863 212.3 110.622 209.486 111.063C206.523 111.528 202.521 112.096 200.214 114.316C199.639 114.869 199.002 115.457 198.392 115.989C197.554 116.721 197.338 117.949 196.763 118.852Z" fill="url(#paint0_linear_96_2)"/>
<path d="M70.1914 138.076C70.3932 138.321 71.0895 138.543 71.1596 138.751C71.603 139.03 76.7199 139.937 77.3575 140.039C79.8026 140.43 81.2556 139.048 82.7549 138.52C84.9703 137.74 87.925 137.641 90.8468 138.71C92.8154 139.43 95.0625 140.517 95.679 141.7C96.1941 142.689 95.7164 143.82 95.4921 144.713C94.7936 147.493 89.8984 148.216 84.2829 147.519C78.8779 146.849 75.1208 147.107 71.0373 148.302C68.2442 149.12 66.3768 150.711 64.2331 151.888C61.1313 153.591 53.2598 151.802 50.5677 149.545C48.3314 147.67 49.5617 144.496 51.3987 143.157C52.6282 142.261 54.6998 141.562 55.3313 140.489C55.7535 139.771 55.6428 139.182 55.6124 138.407C55.5902 137.841 55.6319 136.819 54.9303 136.27C53.9873 135.531 53.273 134.62 52.5768 133.84C51.0791 132.163 51.1554 131.009 51.4089 129.425C51.751 127.286 53.4622 125.722 56.8343 124.802C61.0231 123.66 65.9717 125.068 69.1779 127.271C72.2059 129.352 69.8293 131.444 69.5278 133.329C69.3353 134.532 69.1998 135.635 69.5633 136.904C69.6625 137.251 69.9081 137.733 70.1914 138.076Z" fill="url(#paint1_linear_96_2)"/>
<path d="M88.1267 84.2711C88.2776 84.0847 88.2445 83.759 88.4056 83.632C88.5074 83.3542 87.6186 81.3298 87.4981 81.0831C87.036 80.1372 85.3255 80.3972 84.359 80.2084C82.9309 79.9293 81.8648 79.0769 81.8471 77.6405C81.8351 76.6727 82.0581 75.4325 82.906 74.6417C83.6146 73.981 84.7785 73.551 85.6468 73.1648C88.3513 71.962 90.6161 73.0887 91.8567 75.1585C93.0508 77.1508 94.525 78.1668 96.9411 78.805C98.5937 79.2415 100.627 79.0015 102.384 79.0568C104.927 79.1367 105.943 82.4516 104.828 84.4232C103.901 86.061 100.67 87.302 98.8714 87.4227C97.6673 87.5034 96.3588 87.227 95.1953 87.5806C94.4174 87.817 93.9303 88.1508 93.2505 88.5551C92.755 88.8498 91.8323 89.3575 91.5758 89.8518C91.231 90.5161 90.6579 91.1979 90.195 91.8077C89.1989 93.1195 88.1479 93.6836 86.6544 94.4133C84.6393 95.3978 82.6808 95.672 80.7459 95.1105C78.3423 94.413 77.9553 92.1846 78.8527 90.0833C79.7003 88.0989 82.3481 87.7593 84.1243 86.8915C85.2584 86.3374 86.2842 85.8171 87.2923 85.0599C87.5675 84.8532 87.9148 84.5327 88.1267 84.2711Z" fill="url(#paint2_linear_96_2)"/>
<path d="M222.515 30.645C222.592 30.4772 222.783 30.3515 222.85 30.188C222.97 29.9722 223.363 29.5978 223.649 29.5519C224.266 29.4529 224.818 29.2649 225.513 29.4334C226.421 29.6533 226.985 30.0015 227.667 30.5256C228.464 31.1393 229.592 32.0332 230.68 32.319C231.182 32.4508 231.726 32.612 232.237 32.6931C232.986 32.8122 233.615 32.7668 234.333 32.6922C235.197 32.6022 235.9 32.2116 236.648 31.9341C237.433 31.6426 238.267 31.2501 238.816 30.7451C239.817 29.8261 240.899 29.0367 242.176 28.3376C243.436 27.6477 245.834 27.9571 247.154 28.8243C248.119 29.4593 248.108 30.1546 248.095 30.9522L248.094 30.9647C248.081 31.7622 247.835 32.5148 247.649 33.2813C247.353 34.5027 246.933 35.6866 246.498 36.8689C246.067 38.0407 245.554 39.246 245.131 40.3461C244.915 40.9101 244.738 41.2311 244.52 41.7051C244.302 42.1791 244.262 42.5079 243.977 42.9871C243.673 43.5001 243.473 43.9619 242.932 44.3574C242.536 44.6476 242.138 44.9461 241.619 45.1216C240.222 45.5933 238.762 45.4058 237.504 44.4744C236.837 43.9806 236.342 43.2869 235.836 42.712C235.56 42.3994 235.284 42.0839 235.027 41.7639C234.537 41.1552 234.138 40.5203 233.609 39.9263C233.001 39.2435 231.96 38.7124 231.092 38.2498C230.132 37.7383 229.142 37.2073 228.122 36.7749C227.281 36.4182 226.481 35.9948 225.639 35.6415C224.566 35.1913 223.111 34.344 222.662 33.4746C222.419 33.0039 221.98 32.174 222.165 31.7041C222.301 31.3588 222.362 30.9824 222.515 30.645Z" fill="url(#paint3_linear_96_2)"/>
<path d="M-6.77133 56.0646C-7.37981 54.4217 -6.60433 52.9024 -6.39924 51.2617C-6.02566 50.141 -4.2563 49.0713 -3.35519 48.2176C-2.25335 47.1738 -0.351203 47 1.07564 47C3.96791 47 5.9122 47.6293 8.44909 49.0632C10.2987 50.1087 12.713 49.7397 14.774 49.7397C17.8331 49.7397 25.2901 48.6892 26.1048 53.0882C26.6175 55.857 25.698 59.4807 22.5195 59.4807C21.0726 59.4807 19.2951 59.2565 18.021 60.0896C17.2517 60.5926 17.0172 61.4278 16.4144 62.0682C15.1574 63.4039 13.9931 64.6779 12.4064 65.6366C10.2688 66.928 8.47431 67.77 5.92927 67.3784C4.45593 67.1518 2.92935 65.6913 2.49622 64.2836C2.28034 63.582 2.56011 63.422 1.97196 62.9645C1.48198 62.5834 0.814775 61.8221 0.483739 61.3072C-0.28323 60.1141 -2.61119 58.8042 -3.964 58.1278C-5.10064 57.5595 -6.25189 57.4671 -6.77133 56.0646Z" fill="url(#paint4_linear_96_2)"/>
<path d="M49.7022 24.0438C48.7303 22.3618 48.6892 20.4754 50.0742 18.9365C51.017 17.5224 53 17.5 54.2683 16.5013C56 14 57.6415 11.1161 61.0329 11.0219C62.7483 10.9743 64.3897 10.9349 65.9711 11.6984C68.2752 12.8107 66.64 14.8774 66.0387 16.4336C65.4784 17.8839 65.687 21.0118 66.5123 22.285C67.7872 24.252 69.6432 24.4842 71.5519 25.4644C74.0061 26.7246 73.2503 30.8667 71.8563 32.5672C70.1624 34.6339 68.0168 34.7658 65.5314 34.7658C61.8883 34.7658 62.0467 31.1019 59.8153 28.982C58.759 27.9785 57.9424 26.8511 56.3991 26.8511C54.9648 26.8511 53.5858 26.8341 52.2051 26.4791C51.2686 26.2383 50.1548 24.8272 49.7022 24.0438Z" fill="url(#paint5_linear_96_2)"/>
<path d="M141.777 67.3696C141.777 64.8602 144.265 61.8771 145 60.5C145.735 59.1229 145.735 58.7418 145.735 57.0028C145.735 55.9697 145.928 53.8082 145.278 53.0286C144.258 51.805 142.937 50.6756 141.236 50.6102C139.436 50.541 138.065 47.5214 139.799 46.3654C142.305 44.6944 144.472 45.1962 147.273 45.7566C149.248 46.1515 152.03 48.0796 153.954 46.3485C154.721 45.6575 155.606 45.2661 156.389 44.522C157.172 43.7783 158 43 159.128 43C161.405 43 164.544 43.1531 165.149 45.875C165.739 48.5302 164.775 50.9948 163.39 53.1131C162.13 55.0398 161.973 56.5603 162.477 58.8292C163.126 61.7486 166.805 62.4196 166.739 65.4586C166.711 66.7491 165.529 68.9658 164.473 69.7203C163.485 70.4255 162.451 69.9647 161.412 69.8048C159.394 69.4945 157.271 67.6571 155.306 67.6571C152.17 67.6571 149.988 68.816 147.493 70.7012C146.293 71.6082 144.562 71.3498 143.13 71.31C141.335 71.2601 141.777 68.5714 141.777 67.3696Z" fill="url(#paint6_linear_96_2)"/>
<path d="M139.167 9.5769C139.372 8.86165 139.464 8.09603 140.013 7.54751C140.212 6.95071 141.766 4.24063 142.296 3.37035C142.918 2.34787 143.533 0.812574 144.274 -0.299459C146.424 -3.52411 149.016 -5.77242 152.189 -7.94349C154.953 -9.83485 160.308 -8.89503 163.08 -7.40232C167.542 -4.99976 173.277 -1.51047 173.954 4.04681C174.441 8.03788 171.965 12.4326 167.612 12.6886C165.495 12.8132 163.637 12.0798 161.626 12.0798C157.972 12.0798 155.254 11.7121 151.732 13.1622C149.054 14.2651 146.423 16.0371 143.429 16.0371C142.081 16.0371 140.134 14.7581 139.556 13.6019C139.024 12.5373 138.83 10.7556 139.167 9.5769Z" fill="url(#paint7_linear_96_2)"/>
</g>
<defs>
<linearGradient id="paint0_linear_96_2" x1="203.505" y1="116.954" x2="193.69" y2="104.663" gradientUnits="userSpaceOnUse">
<stop stop-color="#A61414"/>
<stop offset="1" stop-color="#281C1C"/>
</linearGradient>
<linearGradient id="paint1_linear_96_2" x1="72.6993" y1="129.968" x2="82.932" y2="156.88" gradientUnits="userSpaceOnUse">
<stop stop-color="#A61414"/>
<stop offset="1" stop-color="#281C1C"/>
</linearGradient>
<linearGradient id="paint2_linear_96_2" x1="80.0845" y1="87.6345" x2="83.3746" y2="67.9238" gradientUnits="userSpaceOnUse">
<stop stop-color="#A61414"/>
<stop offset="1" stop-color="#281C1C"/>
</linearGradient>
<linearGradient id="paint3_linear_96_2" x1="234.256" y1="25.0186" x2="223.383" y2="40.7993" gradientUnits="userSpaceOnUse">
<stop stop-color="#A61414"/>
<stop offset="1" stop-color="#281C1C"/>
</linearGradient>
<linearGradient id="paint4_linear_96_2" x1="18.5938" y1="48.107" x2="9.61902" y2="67.4751" gradientUnits="userSpaceOnUse">
<stop stop-color="#A61414"/>
<stop offset="1" stop-color="#281C1C"/>
</linearGradient>
<linearGradient id="paint5_linear_96_2" x1="61.076" y1="11" x2="61.076" y2="34.7658" gradientUnits="userSpaceOnUse">
<stop stop-color="#A61414"/>
<stop offset="1" stop-color="#281C1C"/>
</linearGradient>
<linearGradient id="paint6_linear_96_2" x1="152.87" y1="43" x2="152.87" y2="71.3742" gradientUnits="userSpaceOnUse">
<stop stop-color="#A61414"/>
<stop offset="1" stop-color="#281C1C"/>
</linearGradient>
<linearGradient id="paint7_linear_96_2" x1="156.507" y1="-9" x2="158.766" y2="15.7406" gradientUnits="userSpaceOnUse">
<stop stop-color="#A61414"/>
<stop offset="1" stop-color="#281C1C"/>
</linearGradient>
<clipPath id="clip0_96_2">
<rect width="256" height="144" fill="white"/>
</clipPath>
</defs>
</svg>
